<svg width="812" height="610" viewBox="0 0 812 610" fill="none" xmlns="http://www.w3.org/2000/svg">
<path d="M385.618 445.428L308.159 476.983L212.273 234.801L277.747 208.129C284.366 205.433 291.886 208.69 294.544 215.403L385.618 445.428Z" fill="#F4A640"/>
<path d="M357.759 224.865L209.45 251.542L246.427 463.054L394.736 436.377L357.759 224.865Z" fill="#ADCFD8"/>
<path d="M320.298 253.256L254.071 265.169L254.334 266.676L320.562 254.763L320.298 253.256Z" fill="#55769F"/>
<path d="M333.543 246.928L239.489 263.846L239.752 265.353L333.806 248.436L333.543 246.928Z" fill="#55769F"/>
<path d="M347.006 264.785L232.898 285.31L233.161 286.818L347.27 266.292L347.006 264.785Z" fill="#55769F"/>
<path d="M348.276 272.04L234.167 292.565L234.431 294.073L348.54 273.547L348.276 272.04Z" fill="#55769F"/>
<path d="M350.811 286.545L236.703 307.07L236.966 308.578L351.075 288.052L350.811 286.545Z" fill="#55769F"/>
<path d="M352.081 293.8L237.972 314.325L238.236 315.833L352.344 295.307L352.081 293.8Z" fill="#55769F"/>
<path d="M353.347 301.053L239.238 321.578L239.502 323.085L353.61 302.56L353.347 301.053Z" fill="#55769F"/>
<path d="M358.926 332.957L244.817 353.482L245.081 354.989L359.189 334.464L358.926 332.957Z" fill="#55769F"/>
<path d="M360.239 340.482L246.131 361.007L246.394 362.514L360.503 341.989L360.239 340.482Z" fill="#55769F"/>
<path d="M361.555 348.001L247.446 368.526L247.71 370.034L361.819 349.508L361.555 348.001Z" fill="#55769F"/>
<path d="M362.868 355.524L248.759 376.049L249.023 377.557L363.131 357.031L362.868 355.524Z" fill="#55769F"/>
<path d="M364.186 363.046L250.077 383.572L250.341 385.079L364.45 364.554L364.186 363.046Z" fill="#55769F"/>
<path d="M365.499 370.568L251.391 391.093L251.654 392.601L365.763 372.076L365.499 370.568Z" fill="#55769F"/>
<path d="M366.814 378.088L252.706 398.614L252.969 400.121L367.078 379.596L366.814 378.088Z" fill="#55769F"/>
<path d="M336.4 219.618L190.727 258.503L244.626 466.256L390.299 427.371L336.4 219.618Z" fill="#DAEEF7"/>
<path d="M301.349 251.024L236.298 268.388L236.682 269.869L301.733 252.505L301.349 251.024Z" fill="#55769F"/>
<path d="M314.039 243.618L221.657 268.278L222.041 269.759L314.423 245.099L314.039 243.618Z" fill="#55769F"/>
<path d="M328.9 260.299L216.819 290.217L217.204 291.698L329.284 261.78L328.9 260.299Z" fill="#55769F"/>
<path d="M330.746 267.424L218.666 297.342L219.05 298.823L331.131 268.905L330.746 267.424Z" fill="#55769F"/>
<path d="M334.445 281.673L222.365 311.591L222.749 313.072L334.829 283.154L334.445 281.673Z" fill="#55769F"/>
<path d="M336.294 288.799L224.213 318.717L224.598 320.198L336.678 290.28L336.294 288.799Z" fill="#55769F"/>
<path d="M338.14 295.925L226.06 325.843L226.444 327.323L338.525 297.405L338.14 295.925Z" fill="#55769F"/>
<path d="M346.27 327.266L234.19 357.184L234.574 358.665L346.654 328.747L346.27 327.266Z" fill="#55769F"/>
<path d="M348.189 334.651L236.109 364.569L236.493 366.05L348.574 336.132L348.189 334.651Z" fill="#55769F"/>
<path d="M350.105 342.039L238.024 371.957L238.408 373.438L350.489 343.52L350.105 342.039Z" fill="#55769F"/>
<path d="M352.023 349.426L239.942 379.344L240.326 380.825L352.407 350.907L352.023 349.426Z" fill="#55769F"/>
<path d="M353.939 356.817L241.858 386.735L242.242 388.215L354.323 358.297L353.939 356.817Z" fill="#55769F"/>
<path d="M355.856 364.205L243.776 394.123L244.16 395.603L356.24 365.685L355.856 364.205Z" fill="#55769F"/>
<path d="M357.772 371.591L245.692 401.509L246.076 402.99L358.156 373.072L357.772 371.591Z" fill="#55769F"/>
<path d="M356.226 457.399L200.282 520.928L109.327 291.202L240.369 209.206C247.733 204.597 257.415 207.83 260.641 215.977L356.226 457.399Z" fill="#FEB546"/>
<path d="M149.959 483.751L127.711 483.343C119.987 469.145 114.322 456.798 114.322 456.798C139.447 450.924 160.651 453.337 178.32 460.224L188.056 484.212L190.14 465.741C233.922 489.708 251.964 540.442 251.964 540.442C251.964 540.442 174.585 532.082 158.183 524.344C151.85 521.355 143.867 510.604 136.455 498.532C142.382 492.804 149.959 483.751 149.959 483.751Z" fill="#FF5B7E"/>
<path d="M114.322 456.798C114.322 456.798 213.665 499.206 251.961 540.442C251.961 540.442 174.582 532.082 158.18 524.344C151.847 521.355 143.864 510.604 136.452 498.532C142.382 492.804 149.959 483.751 149.959 483.751L127.711 483.343C119.99 469.145 114.322 456.798 114.322 456.798Z" fill="#E03268"/>
<path d="M117.491 524.576C130.868 516.313 144.363 511.891 157.422 510.128C161.25 514.956 165.949 520.632 165.949 520.632L166.446 509.313C216.555 506.999 258.077 541.055 258.077 541.055C229.054 559.608 204.299 564.726 184.018 563.067C182.815 559.108 181.116 553.2 181.116 553.2L177.535 562.292C167.814 560.752 159.235 557.674 151.826 553.917C153.724 549.201 155.723 543.809 155.723 543.809L144.922 550.031C126.821 538.81 117.491 524.576 117.491 524.576Z" fill="#FF5B7E"/>
<path d="M184.018 563.07C182.815 559.111 181.116 553.203 181.116 553.203L177.535 562.295C167.814 560.755 159.235 557.677 151.826 553.92C153.724 549.204 155.723 543.812 155.723 543.812L144.922 550.034C126.824 538.81 117.494 524.576 117.494 524.576C175.878 517.735 258.077 541.058 258.077 541.058C229.051 559.611 204.296 564.726 184.018 563.07Z" fill="#E03268"/>
<path d="M409.872 219.252L427.805 205.893C426.031 189.777 423.634 176.378 423.634 176.378C399.775 186.291 383.829 200.678 373.323 216.648L379.024 241.935L366.811 228.073C344.695 273.277 358.833 325.27 358.833 325.27C358.833 325.27 417.263 273.14 426.253 257.216C429.726 251.067 430.126 237.616 429.308 223.416C421.208 222.211 409.872 219.252 409.872 219.252Z" fill="#02CCC0"/>
<path d="M423.634 176.378C423.634 176.378 366.642 269.172 358.836 325.27C358.836 325.27 417.266 273.14 426.256 257.216C429.729 251.067 430.129 237.616 429.311 223.416C421.211 222.211 409.872 219.255 409.872 219.255L427.805 205.896C426.031 189.777 423.634 176.378 423.634 176.378Z" fill="#06BFAD"/>
<path d="M459.614 233.578C443.988 234.664 430.454 238.955 418.784 245.159C418.405 251.341 417.798 258.728 417.798 258.728L410.954 249.777C368.72 277.224 354.191 329.345 354.191 329.345C388.448 327.506 411.577 317.188 427.191 303.96C425.919 300.022 423.947 294.203 423.947 294.203L432.047 299.531C439.11 292.58 444.363 285.047 448.272 277.638C444.039 274.9 439.339 271.667 439.339 271.667L451.7 270.425C460.095 250.667 459.614 233.578 459.614 233.578Z" fill="#02CCC0"/>
<path d="M427.194 303.963C425.922 300.025 423.95 294.206 423.95 294.206L432.05 299.534C439.113 292.583 444.366 285.05 448.275 277.642C444.042 274.903 439.342 271.67 439.342 271.67L451.703 270.428C460.095 250.667 459.614 233.581 459.614 233.581C408.047 262.178 354.194 329.351 354.194 329.351C388.451 327.509 411.577 317.191 427.194 303.963Z" fill="#06BFAD"/>
<path d="M602.972 299.684H613.638C611.894 298.473 609.711 297.75 607.335 297.75H340.179C326.203 297.75 314.87 307.937 314.87 320.506V334.96C314.87 347.526 326.2 357.716 340.179 357.716L604.346 357.634L602.972 299.684Z" fill="#E03268"/>
<path d="M337.28 334.96V320.506C337.28 307.937 348.61 297.75 362.589 297.75H356.852C342.876 297.75 331.543 307.937 331.543 320.506V334.96C331.543 347.526 342.873 357.716 356.852 357.716L362.514 357.713C348.571 357.677 337.28 347.505 337.28 334.96Z" fill="#FEB546"/>
<path d="M399.847 334.96V320.506C399.847 307.937 411.177 297.75 425.156 297.75H419.419C405.443 297.75 394.11 307.937 394.11 320.506V334.96C394.11 347.526 405.44 357.716 419.419 357.716L425.081 357.713C411.138 357.677 399.847 347.505 399.847 334.96Z" fill="#FEB546"/>
<path d="M451.3 297.802C437.932 297.802 427.098 307.544 427.098 319.564V335.9C427.098 347.92 437.935 357.661 451.3 357.661H617.613V354.007H616.924L574.645 350.408L566.099 320.265C566.099 320.265 582.592 303.606 583.668 303.179C584.745 302.749 616.924 301.447 616.924 301.447L617.613 301.441V297.802H451.3Z" fill="#FF5B7E"/>
<path d="M606.827 327.625C606.827 309.999 616.957 301.456 616.957 301.456H454.71C442.433 301.456 432.48 310.405 432.48 321.446V334.021C432.48 345.059 442.433 354.01 454.71 354.01H616.957C616.954 354.007 606.827 349.817 606.827 327.625Z" fill="#DAEEF7"/>
<path d="M432.477 321.446V334.021C432.477 335.674 432.706 337.278 433.124 338.815C438.596 326.777 449.084 315.181 469.05 311.454C515.662 302.749 616.954 301.459 616.954 301.459H454.707C442.43 301.456 432.477 310.408 432.477 321.446Z" fill="#DAEEF7"/>
<path d="M598.573 419.543H610.643C608.667 418.027 606.199 417.121 603.511 417.121H301.141C285.322 417.121 272.497 429.873 272.497 445.605V463.698C272.497 479.429 285.322 492.182 301.141 492.182L600.128 492.081L598.573 419.543Z" fill="#284C7A"/>
<path d="M426.912 417.188C411.784 417.188 399.519 429.385 399.519 444.428V464.875C399.519 479.918 411.784 492.114 426.912 492.114H615.144V487.539H614.365L566.511 483.032L556.838 445.3C556.838 445.3 575.505 424.45 576.722 423.913C577.94 423.377 614.362 421.745 614.362 421.745L615.141 421.736V417.188H426.912V417.188Z" fill="#55769F"/>
<path d="M602.936 454.517C602.936 432.456 614.401 421.763 614.401 421.763H430.77C416.875 421.763 405.608 432.966 405.608 446.782V462.52C405.608 476.337 416.872 487.539 430.77 487.539H614.401C614.398 487.543 602.936 482.293 602.936 454.517Z" fill="#DAEEF7"/>
<path d="M405.605 446.782V462.52C405.605 464.588 405.864 466.598 406.339 468.52C412.533 453.45 424.401 438.938 446.998 434.271C499.753 423.377 614.398 421.76 614.398 421.76H430.767C416.872 421.763 405.605 432.966 405.605 446.782Z" fill="#DAEEF7"/>
<path d="M262.533 359.485H250.457C252.433 358.283 254.904 357.564 257.592 357.564H560.079C575.905 357.564 588.735 367.684 588.735 380.164V394.521C588.735 407.004 575.905 417.121 560.079 417.121L260.975 417.042L262.533 359.485Z" fill="#02CCC0"/>
<path d="M434.26 357.616C449.394 357.616 461.665 367.293 461.665 379.231V395.454C461.665 407.392 449.397 417.069 434.26 417.069H245.953V413.44H246.732L294.604 409.865L304.28 379.926C304.28 379.926 285.604 363.383 284.387 362.956C283.169 362.529 246.732 361.236 246.732 361.236L245.953 361.23V357.622H434.26V357.616Z" fill="#06BFAD"/>
<path d="M258.167 387.234C258.167 369.73 246.699 361.245 246.699 361.245H430.403C444.303 361.245 455.573 370.133 455.573 381.097V393.584C455.573 404.549 444.303 413.437 430.403 413.437H246.699C246.699 413.44 258.167 409.276 258.167 387.234Z" fill="#DAEEF7"/>
<path d="M455.573 381.098V393.584C455.573 395.225 455.314 396.82 454.839 398.345C448.642 386.389 436.768 374.872 414.163 371.17C361.386 362.523 246.696 361.242 246.696 361.242H430.4C444.303 361.245 455.573 370.133 455.573 381.098Z" fill="#DAEEF7"/>
<path opacity="0.5" d="M533.321 394.521V380.164C533.321 367.684 520.491 357.564 504.666 357.564H533.391C549.216 357.564 562.046 367.684 562.046 380.164V394.521C562.046 407.004 549.216 417.121 533.391 417.121L505.048 417.112C520.696 416.953 533.321 406.904 533.321 394.521Z" fill="#55769F"/>
<path d="M239.696 494.481H226.679C228.808 493.139 231.472 492.334 234.371 492.334H560.458C577.519 492.334 591.351 503.64 591.351 517.585V533.625C591.351 547.573 577.519 558.876 560.458 558.876L238.018 558.787L239.696 494.481Z" fill="#FEB546"/>
<path d="M424.822 492.395C441.137 492.395 454.364 503.207 454.364 516.545V534.671C454.364 548.009 441.137 558.821 424.822 558.821H221.826V554.768H222.665L274.271 550.772L284.702 517.323C284.702 517.323 264.571 498.837 263.257 498.361C261.943 497.885 222.665 496.439 222.665 496.439L221.826 496.433V492.401H424.822V492.395Z" fill="#F4A640"/>
<path d="M234.99 525.488C234.99 505.931 222.626 496.449 222.626 496.449H420.664C435.65 496.449 447.797 506.379 447.797 518.631V532.585C447.797 544.837 435.65 554.767 420.664 554.767H222.626C222.626 554.764 234.99 550.113 234.99 525.488Z" fill="#DAEEF7"/>
<path d="M447.797 518.631V532.585C447.797 534.418 447.521 536.199 447.007 537.904C440.328 524.545 427.525 511.677 403.158 507.541C346.262 497.882 222.626 496.452 222.626 496.452H420.664C435.65 496.448 447.797 506.379 447.797 518.631Z" fill="#DAEEF7"/>
<path d="M693.226 565.763H143.272C141.648 565.763 140.328 564.427 140.328 562.777V561.404C140.328 559.757 141.645 558.418 143.272 558.418H693.229C694.856 558.418 696.173 559.754 696.173 561.404V562.777C696.17 564.427 694.853 565.763 693.226 565.763Z" fill="#C4DFE8"/>
<path d="M136.957 316.566L243.129 254.968L257.481 283.799L148.84 342.1L136.957 316.566Z" fill="#F4A640"/>
<path d="M337.034 141.105C337.034 141.105 336.195 149.481 329.679 150.06C336.195 150.64 337.034 159.015 337.034 159.015C337.034 159.015 337.873 150.64 344.388 150.06C337.873 149.481 337.034 141.105 337.034 141.105Z" fill="#02CCC0"/>
<path d="M224.451 76.7593C224.451 76.7593 223.335 87.9162 214.655 88.6879C223.335 89.4595 224.451 100.616 224.451 100.616C224.451 100.616 225.566 89.4595 234.247 88.6879C225.566 87.9162 224.451 76.7593 224.451 76.7593Z" fill="#FEB546"/>
<path d="M178.978 176.546C178.978 176.546 178.229 184.037 172.402 184.555C178.229 185.074 178.978 192.565 178.978 192.565C178.978 192.565 179.727 185.074 185.554 184.555C179.727 184.037 178.978 176.546 178.978 176.546Z" fill="#FF5B7E"/>
<path d="M695.394 355.288C695.394 355.288 694.279 366.445 685.601 367.217C694.282 367.989 695.394 379.145 695.394 379.145C695.394 379.145 696.51 367.989 705.19 367.217C696.51 366.445 695.394 355.288 695.394 355.288Z" fill="#FF5B7E"/>
<path d="M79.9442 257.057C79.9442 257.057 78.8286 268.214 70.1478 268.986C78.8286 269.757 79.9442 280.914 79.9442 280.914C79.9442 280.914 81.0597 269.757 89.7405 268.986C81.0567 268.214 79.9442 257.057 79.9442 257.057Z" fill="#02CCC0"/>
<path d="M718.58 245.129C718.58 245.129 717.464 256.285 708.787 257.057C717.464 257.829 718.58 268.986 718.58 268.986C718.58 268.986 719.696 257.829 728.376 257.057C719.696 256.285 718.58 245.129 718.58 245.129Z" fill="#02CCC0"/>
<path d="M447.797 69.8969C447.797 69.8969 446.682 81.0538 438.001 81.8254C446.682 82.5971 447.797 93.754 447.797 93.754C447.797 93.754 448.913 82.5971 457.594 81.8254C448.913 81.0538 447.797 69.8969 447.797 69.8969Z" fill="#FF5B7E"/>
<path d="M633.741 163.071C633.741 163.071 633.134 170.117 628.416 170.602C633.134 171.09 633.741 178.132 633.741 178.132C633.741 178.132 634.349 171.087 639.064 170.602C634.349 170.114 633.741 163.071 633.741 163.071Z" fill="#FEB546"/>
<path d="M252.878 506.395L238.219 507.148L236.364 551.257L228.865 554.92L229.226 556.527L232.013 557.195C232.013 557.195 241.031 557.04 241.301 557.04C241.572 557.04 243.43 554.96 243.43 554.96L243.151 554.597L244.648 553.566L252.878 506.395Z" fill="#FFC0BB"/>
<path d="M292.583 554.917C292.583 554.917 285.262 551.187 285.081 551.254L286.741 506.34L268.57 506.395L276.8 553.56L277.702 554.182C277.477 554.966 277.296 555.643 277.254 555.859C277.137 556.448 280.351 556.488 281.473 556.683C282.594 556.878 285.845 557.232 287.935 557.821C290.024 558.409 292.655 556.683 292.655 556.683L292.583 554.917Z" fill="#FFC0BB"/>
<path d="M293.073 385.157C290.957 379.576 288.9 381.787 285.081 375.037C284.474 373.964 284.038 372.576 283.731 371.295C282.817 367.467 280.832 363.972 277.895 361.398C268.94 353.553 258.81 357.036 258.81 357.036C258.81 357.036 261.438 372.198 261.94 375.272C259.703 378.362 257.445 381.515 257.445 381.515C257.445 381.515 252.733 406.437 260.127 408.538C267.524 410.64 268.868 407.267 272.479 405.513C276.091 403.756 279.618 408.551 285.012 405.214C289.134 402.664 287.042 396.308 289.222 395.115C291.402 393.923 295.356 391.181 293.073 385.157Z" fill="#FF5500"/>
<path d="M254.973 369.611C254.841 369.553 251.452 367.613 248.277 365.796L267.993 343.534C267.993 343.534 262.019 342.359 261.655 342.314C261.291 342.268 252.724 344.973 252.724 344.973L243.89 347.401C237.149 372.353 228.754 376.87 228.751 376.873C227.737 377.557 226.778 378.468 225.81 380.057C222.463 385.547 225.849 388.985 227.773 390.568C229.698 392.151 226.477 398.004 230.062 401.282C234.755 405.577 239.094 401.526 242.324 403.933C245.553 406.339 246.257 409.905 253.909 409.231C261.561 408.557 261.486 383.181 261.486 383.181C261.486 383.181 255.22 369.724 254.973 369.611Z" fill="#FF5500"/>
<path d="M288.443 415.099C288.443 415.099 294.95 446.608 293.061 450.015C291.173 453.422 266.406 454.487 266.406 454.487L265.356 414.034L274.801 399.556L288.443 415.099Z" fill="#FF5B7E"/>
<path d="M280.589 451.574L275.961 438.712C275.961 438.712 260.729 433.085 259.76 433.015C258.792 432.947 245.899 438.712 245.899 438.712C245.899 438.712 241.957 446.807 241.187 448.258C240.76 449.064 241.743 454.017 242.706 458.275L237.242 458.534L233.613 539.856C233.613 539.856 241.479 544.154 249.949 540.469L256.907 469.438L262.957 468.517L272.034 538.935C272.034 538.935 279.296 544.459 289.582 539.856L282.766 461.489C282.471 458.104 281.737 454.77 280.589 451.574Z" fill="#07085B"/>
<path d="M250.965 389.991C250.965 389.991 257.722 388.555 270.296 389.461C282.868 390.366 264.481 397.552 264.481 397.552C264.481 397.552 258.028 397.339 257.752 397.287C257.472 397.232 250.965 389.991 250.965 389.991Z" fill="#FFC0BB"/>
<path d="M266.953 382.79H255.791V402.661H266.953V382.79Z" fill="#FFC0BB"/>
<path d="M266.935 386.185V379.408H255.791V385.172C258.191 386.481 261.742 387.234 266.935 386.185Z" fill="#F99893"/>
<path d="M282.57 360.669C281.503 360.135 280.264 360.229 279.143 360.806C279.527 350.567 271.298 341.957 260.93 342.32C250.562 341.957 242.333 350.567 242.717 360.806C241.596 360.229 240.357 360.135 239.29 360.669C237.242 361.693 236.605 364.628 237.867 367.226C239.13 369.822 241.812 371.097 243.86 370.072C244.146 369.928 244.398 369.748 244.627 369.538C245.8 378.002 252.76 384.346 260.927 384.23C269.094 384.349 276.055 378.002 277.227 369.538C277.456 369.748 277.708 369.931 277.994 370.072C280.042 371.097 282.724 369.822 283.987 367.226C285.256 364.628 284.618 361.693 282.57 360.669Z" fill="#FFC0BB"/>
<path d="M256.327 364.441C256.372 365.298 255.725 366.034 254.88 366.079C254.035 366.125 253.311 365.469 253.266 364.612C253.22 363.755 253.867 363.02 254.712 362.974C255.56 362.929 256.281 363.584 256.327 364.441Z" fill="#333333"/>
<path d="M269.524 364.588C269.569 365.445 268.922 366.18 268.077 366.226C267.232 366.271 266.508 365.616 266.463 364.759C266.418 363.902 267.064 363.167 267.909 363.121C268.754 363.072 269.479 363.731 269.524 364.588Z" fill="#333333"/>
<path d="M258.01 361.26C257.244 360.989 256.513 360.778 255.785 360.647C255.061 360.516 254.342 360.483 253.641 360.559C252.944 360.644 252.243 360.788 251.573 361.096L251.311 361.193C251.224 361.227 251.146 361.279 251.062 361.318L250.547 361.571C250.205 361.745 249.883 361.968 249.501 362.142C249.705 361.791 249.94 361.446 250.211 361.132C250.511 360.855 250.788 360.522 251.152 360.312C251.831 359.808 252.679 359.528 253.527 359.433C254.381 359.342 255.253 359.476 256.029 359.799C256.802 360.126 257.508 360.601 258.01 361.26Z" fill="#FF5500"/>
<path d="M264.186 361.236C264.683 360.574 265.386 360.092 266.153 359.757C266.926 359.43 267.795 359.287 268.652 359.372C269.503 359.461 270.351 359.735 271.033 360.232C271.4 360.44 271.68 360.769 271.98 361.047C272.254 361.358 272.488 361.703 272.696 362.05C272.314 361.88 271.992 361.66 271.646 361.489L271.132 361.242C271.045 361.205 270.967 361.154 270.88 361.12L270.618 361.022C269.945 360.721 269.244 360.58 268.546 360.501C267.846 360.431 267.13 360.47 266.403 360.608C265.681 360.742 264.953 360.961 264.186 361.236Z" fill="#FF5500"/>
<path d="M261.688 362.316C261.613 363.133 261.67 363.95 261.82 364.759C261.895 365.164 262.003 365.567 262.16 365.966C262.322 366.363 262.518 366.763 262.875 367.107C263.284 367.427 263.462 367.522 263.576 367.812C263.696 368.065 263.642 368.388 263.513 368.696C263.227 369.325 262.569 369.794 261.85 370.142C262.641 370.105 263.516 369.782 264.033 368.998C264.286 368.617 264.424 368.08 264.262 367.571C264.093 367.046 263.796 366.86 263.474 366.601C263.188 366.369 263.005 366.043 262.821 365.674C262.65 365.341 262.533 364.969 262.394 364.606C262.145 363.862 261.925 363.093 261.688 362.316Z" fill="#F99893"/>
<path d="M256.66 372.066C257.084 372.362 257.52 372.631 257.977 372.859C258.428 373.097 258.894 373.305 259.373 373.472C260.329 373.808 261.324 374.015 262.328 374.018C263.333 374.025 264.328 373.814 265.263 373.433C266.195 373.039 267.058 372.475 267.858 371.822C267.503 372.201 267.121 372.554 266.706 372.872C266.294 373.189 265.84 373.451 265.374 373.689C264.902 373.915 264.403 374.092 263.892 374.208C263.378 374.32 262.854 374.375 262.328 374.378C261.276 374.369 260.235 374.137 259.276 373.729C258.32 373.323 257.418 372.774 256.66 372.066Z" fill="#F99893"/>
<path d="M283.076 393.965C277.029 388.012 268.667 389.275 268.667 389.275C267.732 390.223 266.796 390.94 265.87 391.474C264.544 392.157 262.882 392.749 261.029 392.797C260.996 392.797 260.963 392.8 260.93 392.797C260.897 392.797 260.864 392.794 260.831 392.797C258.979 392.749 257.313 392.157 255.99 391.474C255.064 390.937 254.129 390.223 253.193 389.275C253.193 389.275 244.831 388.012 238.785 393.965C232.738 399.919 226.688 413.055 226.688 413.055C226.688 413.055 234.337 420.128 241.629 421.031C241.629 421.031 245.186 437.632 245.899 438.715C245.899 438.715 249.57 440.463 254.907 441.378C256.85 441.753 258.759 441.908 260.59 441.918C260.705 441.921 260.816 441.918 260.93 441.921C261.044 441.921 261.159 441.921 261.27 441.918C263.101 441.908 265.01 441.753 266.953 441.378C272.29 440.463 275.961 438.715 275.961 438.715C276.674 437.632 280.231 421.031 280.231 421.031C287.523 420.128 295.172 413.055 295.172 413.055C295.172 413.055 289.125 399.919 283.076 393.965Z" fill="#02CCC0"/>
<path d="M261.583 434.235C261.583 434.235 263.829 433.856 265.068 435.531L264.98 439.84L262.235 441.137C262.235 441.137 258.834 438.2 259.09 438.126C259.345 438.053 261.583 434.235 261.583 434.235Z" fill="#E03268"/>
<path d="M268.574 462.389L232.401 473.006L228.895 446.145L265.068 435.531L268.574 462.389Z" fill="#E03268"/>
<path d="M229.415 468.684L232.59 471.405L267.211 461.337L264.099 436.025L261.658 434.985L229.415 468.684Z" fill="#DAEEF7"/>
<path d="M267.211 461.337L264.743 459.159L260.226 454.127L260.5 440.277L261.658 434.985L264.111 435.982L267.211 461.337Z" fill="#DAEEF7"/>
<path d="M264.743 459.159L228.57 469.773L225.41 444.849L261.583 434.235L264.743 459.159Z" fill="#FF5B7E"/>
<path d="M246.993 406.623C246.154 407.66 245.388 408.737 244.687 409.85C243.989 410.966 243.361 412.122 242.853 413.33C242.339 414.535 241.948 415.788 241.728 417.078C241.506 418.372 241.482 419.695 241.635 421.028C241.229 419.75 241.109 418.365 241.25 417.011C241.379 415.654 241.764 414.33 242.284 413.08C242.823 411.835 243.496 410.655 244.293 409.572C245.078 408.49 245.968 407.477 246.993 406.623Z" fill="#DAEEF7"/>
<path d="M239.488 451.928C233.12 440.99 236.066 427.683 238.586 420.327C233.586 418.692 228.955 415.001 227.316 413.604C217.15 436.885 234.367 456.808 234.367 456.808L234.401 456.774C234.728 457.524 234.969 458.195 234.969 458.195C239.028 465.637 239.205 465.518 239.497 465.415C239.789 465.308 238.986 461.77 239.344 461.779C239.702 461.788 242.263 466.052 242.453 465.653C242.639 465.253 240.748 461.023 241.025 460.953C241.301 460.879 243.713 465.034 244.245 464.674C244.777 464.317 241.981 459.858 242.516 459.748C243.051 459.638 245.799 464.28 246.232 463.875C246.596 463.533 243.647 458.266 242.699 456.597C242.576 456.384 242.742 456.115 242.985 456.131C246.753 456.353 247.056 456.146 246.984 455.722C246.933 455.42 242.411 453.282 239.488 451.928Z" fill="#FFC0BB"/>
<path d="M282.095 390.44C274.289 418.939 283.713 427.348 283.752 427.567L282.342 434.198C282.342 434.198 263.116 421.519 275.303 387.734C275.646 386.786 276.665 386.289 277.57 386.713L281.217 388.427C281.966 388.78 282.318 389.631 282.095 390.44Z" fill="#E03268"/>
<path d="M299.138 460.038C299.138 460.038 298.892 459.406 298.657 458.659C298.657 458.656 298.657 458.653 298.66 458.65H298.657L298.29 455.887C298.062 449.622 297.036 427.406 293.663 414.333C291.095 416.401 285.643 420.308 280.351 421.01C283.668 428.046 290.614 444.263 291.82 459.007C290.596 461.819 288.948 465.708 289.089 465.939C289.303 466.284 289.646 466.238 292.177 463.679C292.343 463.515 292.622 463.597 292.67 463.829C293.031 465.616 294.204 471.231 294.673 471.24C295.229 471.252 294.303 466.208 294.754 465.945C295.202 465.683 295.984 470.624 296.582 470.539C297.181 470.453 296.321 465.973 296.558 465.848C296.799 465.723 298.077 469.929 298.456 470.093C298.838 470.258 298.011 465.601 298.26 465.366C298.51 465.131 300.133 468.151 300.404 468.041C300.672 467.931 300.87 467.9 299.138 460.038Z" fill="#FFC0BB"/>
<path d="M239.506 360.559C239.506 360.559 238.376 339.371 261.655 337.971C261.655 337.971 260.93 358.787 242.718 360.806L241.313 358.04L239.506 360.559Z" fill="#FF5500"/>
<path d="M261.655 337.97C261.655 337.97 280.538 336.897 281.539 360.348C281.539 360.348 280.168 360.248 279.146 360.806C279.146 360.806 264.189 357.012 260.479 342.311L261.655 337.97Z" fill="#FF5500"/>
<path d="M235.224 556.527C231.43 556.915 229.638 556.076 228.865 554.917L226.294 556.619C225.275 557.278 225.735 558.879 226.944 558.879H243.647C244.236 558.879 244.714 558.394 244.714 557.796V553.218C243.641 554.341 241.112 555.93 235.224 556.527Z" fill="#07085B"/>
<path d="M286.227 556.527C290.021 556.915 291.813 556.076 292.586 554.917L295.157 556.619C296.176 557.278 295.716 558.879 294.508 558.879H277.801C277.212 558.879 276.734 558.394 276.734 557.796V553.218C277.81 554.341 280.339 555.93 286.227 556.527Z" fill="#07085B"/>
<path d="M635.672 404.848L654.973 406.419L648.743 422.257L639 421.464L634.944 434.665C633.955 434.207 633.227 433.859 633.08 433.762C632.785 433.564 631.709 427.012 630.762 420.824L635.672 404.848Z" fill="#DAEEF7"/>
<path d="M646.686 550.485V557.387C646.686 557.958 647.14 558.418 647.699 558.418H663.585C664.733 558.418 665.172 556.89 664.204 556.262L655.292 550.482C655.292 550.485 651.798 553.087 646.686 550.485Z" fill="#E03268"/>
<path d="M615.505 257.948C615.273 258.039 615.03 257.835 615.081 257.588C615.478 255.672 616.692 249.633 616.235 249.42C615.691 249.167 614.476 254.535 613.923 254.599C613.37 254.663 614.687 249.456 614.062 249.283C613.436 249.106 612.396 253.894 612.104 253.912C611.815 253.931 612.33 249.237 612.023 248.907C611.716 248.581 610.565 253.525 610.222 253.65C609.879 253.775 609.554 250.094 609.239 250.085C608.923 250.076 608.715 250.018 607.107 258.515C607.107 258.515 607.01 261.629 606.469 262.361L607.678 264.865L611.425 264.99C611.425 264.99 619.567 257.518 619.498 257.063C619.435 256.63 619.077 256.529 615.505 257.948Z" fill="#FFC0BB"/>
<path d="M654.077 259.829C654.242 260.019 654.549 259.948 654.615 259.704C655.123 257.813 656.756 251.878 657.258 251.899C657.856 251.924 656.524 257.264 656.987 257.579C657.451 257.893 658.62 252.65 659.255 252.781C659.889 252.912 658.665 257.658 658.915 257.807C659.164 257.957 660.815 253.54 661.236 253.391C661.657 253.241 660.457 258.173 660.71 258.445C660.96 258.713 662.902 255.587 663.188 255.727C663.47 255.864 663.684 255.91 661.296 264.218C661.296 264.218 659.982 267.034 660.136 267.936L657.935 269.605L654.543 267.985C654.543 267.985 650.655 257.569 650.917 257.197C651.169 256.84 651.533 256.914 654.077 259.829Z" fill="#FFC0BB"/>
<path d="M624.294 327.881L624.354 342.408L610.438 340.234L612.76 323.898L624.294 327.881Z" fill="#FFC0BB"/>
<path opacity="0.6" d="M611.692 331.416L612.76 323.895L624.306 329.257L624.312 332.124C621.531 332.816 616.323 333.432 611.692 331.416Z" fill="#FC8D84"/>
<path d="M599.154 549.72V557.29C599.154 557.915 598.654 558.422 598.038 558.422H580.565C579.299 558.422 578.818 556.747 579.886 556.058L589.688 549.72C589.688 549.72 593.534 552.568 599.154 549.72Z" fill="#E03268"/>
<path d="M583.196 421.113C583.232 419.494 579.077 424.267 579.155 422.974C580.785 396.094 632.56 418.631 632.56 418.631L645.198 428.037L659.465 552.611C659.465 552.611 651.719 554.887 646.623 553.026L615.027 446.276L611.142 444.76C611.142 444.763 593.862 432.533 583.196 421.113Z" fill="#07085B"/>
<path d="M579.095 424.072C579.08 424.386 579.065 424.706 579.053 425.039C579.065 424.706 579.08 424.386 579.095 424.072Z" fill="#06BFAD"/>
<path d="M579.053 425.054C579.041 425.39 579.029 425.737 579.017 426.091C579.029 425.737 579.041 425.39 579.053 425.054Z" fill="#06BFAD"/>
<path d="M579.014 426.228C579.002 426.594 578.993 426.969 578.984 427.351C578.993 426.966 579.002 426.594 579.014 426.228Z" fill="#06BFAD"/>
<path d="M579.156 422.974C579.137 423.264 579.122 423.566 579.107 423.874C579.119 423.569 579.137 423.264 579.156 422.974Z" fill="#06BFAD"/>
<path d="M579.161 416.868C589.829 428.287 611.145 444.763 611.145 444.763L615.03 446.279L611.145 444.763L599.132 552.617C599.132 552.617 590.572 554.27 585.68 551.583C585.677 551.58 578.463 448.917 579.161 416.868Z" fill="#07085B"/>
<path d="M659.465 552.614C659.465 552.614 656.13 553.593 652.396 553.743C656.13 553.593 659.465 552.614 659.465 552.614Z" fill="#06BFAD"/>
<path d="M648.117 553.447C648.46 553.517 648.812 553.576 649.167 553.622C648.812 553.579 648.463 553.52 648.117 553.447Z" fill="#06BFAD"/>
<path d="M652.396 553.743C651.506 553.78 650.595 553.768 649.702 553.682C650.595 553.765 651.506 553.777 652.396 553.743Z" fill="#06BFAD"/>
<path d="M645.198 428.04L647.233 445.818C641.845 447.935 628.711 450.195 618.815 428.238C615.694 421.312 614.891 416.328 615.469 412.75C624.946 415.322 632.563 418.634 632.563 418.634L645.198 428.04Z" fill="#050645"/>
<path d="M597.692 355.471C598.291 355.471 607.257 334.853 607.257 334.853C614.927 340.31 625.34 336.522 625.34 336.522C625.34 336.522 667.238 414.291 639.139 426.417C611.043 438.544 584.54 423.791 584.54 423.791C584.54 423.791 578.563 408.026 578.563 407.419C578.563 406.812 597.094 355.471 597.692 355.471Z" fill="#DAEEF7"/>
<path d="M652.291 268.15C652.291 268.15 654.107 305.046 650.697 311.811C639.388 334.246 625.34 336.522 625.34 336.522C625.34 336.522 620.508 414.998 624.492 433.795C624.492 433.795 637.744 437.94 657.273 428.641C657.273 428.641 642.329 367.799 643.126 360.12C643.126 360.12 667.039 338.492 667.836 313.025C668.633 287.557 662.057 264.917 662.057 264.917L652.291 268.15Z" fill="#55769F"/>
<path d="M587.827 430.968C587.827 430.968 589.321 401.761 595.897 374.067C602.473 346.376 607.254 334.853 607.254 334.853C598.435 324.999 599.902 316.093 600.678 304.533C601.574 291.193 614.428 264.511 614.428 264.511L605.76 258.75C564.211 309.383 587.228 349.707 587.228 349.707C587.228 349.707 571.686 405.494 569.593 422.474C569.596 422.477 577.865 427.329 587.827 430.968Z" fill="#55769F"/>
<path d="M642.723 360.037C642.224 359.677 641.631 359.128 641.054 358.427C639.292 356.27 638.378 353.843 637.747 351.128C638.129 352.287 639.151 355.654 641.304 358.213C642.269 359.33 642.777 359.708 643.246 360.013C643.171 360.083 643.129 360.123 643.129 360.123C643.123 360.174 643.12 360.226 643.117 360.281C642.564 360.397 641.592 360.431 639.96 359.528C638.943 358.988 638.141 358.317 637.302 357.594C637.852 357.991 638.985 358.823 640.056 359.333C640.799 359.705 641.89 360.095 642.723 360.037Z" fill="white"/>
<path d="M587.547 349.524C588.26 349.066 588.876 348.411 589.444 347.752C591.206 345.653 592.175 343.171 593.002 340.667C592.373 343.366 591.465 345.8 589.694 347.965C589.117 348.664 588.533 349.21 588.025 349.576C588.413 349.603 588.882 349.527 589.195 349.438C589.709 349.307 590.214 349.115 590.695 348.874C591.694 348.398 592.68 347.691 593.45 347.136C592.707 347.776 591.853 348.505 590.791 349.069C590.31 349.335 589.799 349.557 589.264 349.719C588.723 349.856 588.172 349.975 587.559 349.808L587.24 349.719L587.547 349.524Z" fill="white"/>
<path d="M604.334 298.232L603.492 308.206L605.047 309.197L607.919 297.055L604.334 298.232Z" fill="#07085B"/>
<path d="M606.424 307.175C606.851 309.432 605.754 311.545 603.974 311.893C602.193 312.241 600.401 310.688 599.974 308.431C599.547 306.174 600.645 304.061 602.425 303.716C604.205 303.365 605.997 304.915 606.424 307.175Z" fill="#F99893"/>
<path d="M603.874 316.392C603.417 313.506 603.483 310.551 603.736 308.016C603.79 307.474 603.814 306.928 603.826 306.379C603.877 304.17 604.331 301.91 605.285 299.687C608.349 292.526 615.83 288.182 623.467 289.143C633.756 290.439 640.534 300.257 638.555 310.295C639.752 309.907 640.988 310.011 641.956 310.71C643.814 312.049 643.983 315.044 642.332 317.401C640.681 319.759 637.837 320.582 635.979 319.244C635.72 319.057 635.497 318.838 635.305 318.594C632.761 326.96 624.561 332.151 616.317 330.333C610.059 328.952 604.894 323.684 603.874 316.392Z" fill="#FFC0BB"/>
<path d="M622.896 308.419C622.493 309.45 623.226 310.563 624.339 310.56C624.946 310.557 625.506 310.167 625.731 309.593C626.137 308.559 625.403 307.443 624.285 307.449C623.68 307.452 623.118 307.846 622.896 308.419Z" fill="#333333"/>
<path d="M609.864 306.44C609.458 307.471 610.195 308.587 611.31 308.581C611.918 308.578 612.477 308.184 612.702 307.611C613.105 306.58 612.372 305.467 611.256 305.473C610.652 305.473 610.09 305.866 609.864 306.44Z" fill="#333333"/>
<path d="M620.866 319.28C620.057 319.689 619.149 319.991 618.406 320.137C617.559 320.305 616.693 320.357 615.845 320.238C614.997 320.122 614.182 319.823 613.436 319.387C612.696 318.942 612.035 318.359 611.437 317.709C612.047 318.579 612.597 319.085 613.313 319.591C614.053 320.082 614.84 320.399 615.806 320.549C616.696 320.668 617.604 320.601 618.461 320.375C619.318 320.14 620.145 319.786 620.866 319.28Z" fill="#F99893"/>
<path d="M621.657 305.265C622.454 305.122 623.205 305.03 623.945 305.018C624.682 305.006 625.394 305.085 626.074 305.274C626.748 305.47 627.415 305.726 628.028 306.135C628.864 306.616 629.466 307.208 629.902 307.501C629.622 306.784 629.174 305.933 628.558 305.433C627.965 304.829 627.175 304.414 626.354 304.186C625.527 303.957 624.646 303.951 623.834 304.143C623.028 304.344 622.255 304.698 621.657 305.265Z" fill="#07085B"/>
<path d="M615.571 304.25C615.183 303.518 614.567 302.929 613.863 302.478C613.154 302.032 612.318 301.752 611.461 301.7C610.61 301.651 609.732 301.785 608.98 302.166C608.24 302.441 607.543 303.106 607.056 303.688C607.603 303.542 608.288 303.194 609.263 303.005C609.972 302.816 610.688 302.792 611.388 302.825C612.092 302.868 612.793 303.024 613.484 303.274C614.179 303.521 614.861 303.853 615.571 304.25Z" fill="#07085B"/>
<path d="M618.226 306.208C617.507 306.891 616.852 307.632 616.229 308.401C615.607 309.172 615.027 309.981 614.513 310.844C614.218 311.362 613.848 312.052 613.761 312.64C613.71 312.967 613.737 313.284 614.272 313.818C614.624 314.196 615.021 314.504 615.427 314.787C615.839 315.065 616.263 315.324 616.708 315.535C615.965 314.888 615.213 314.245 614.624 313.503C614.531 313.391 614.35 313.122 614.287 312.973C614.254 312.863 614.311 312.622 614.389 312.418C614.549 311.991 614.777 311.564 615.024 311.149C615.508 310.31 616.058 309.499 616.596 308.678C617.15 307.867 617.697 307.05 618.226 306.208Z" fill="#F99893"/>
<path d="M606.165 287.588C606.165 287.588 601.003 286.578 607.362 283.415C613.722 280.252 629.315 278.41 637.467 285.495C637.467 285.495 640.209 281.927 642.672 283.494C645.134 285.062 640.107 286.795 640.107 286.795C640.107 286.795 643.55 287.469 644.211 289.405C644.701 290.839 642.597 290.415 641.466 290.095C643.336 290.875 648.839 296.146 641.695 310.542C640.429 309.941 632.253 298.11 632.253 298.11C632.253 298.11 615.818 303.588 618.812 299.043C618.812 299.043 599.659 303.929 604.301 295.124C604.298 295.127 597.238 294.05 606.165 287.588Z" fill="#07085B"/>
<path d="M641.692 310.545C641.692 310.545 640.453 309.581 638.558 310.295C636.664 311.009 635.458 315.318 635.458 315.318C635.458 315.318 629.255 320.47 632.28 298.016C635.251 275.955 639.367 301.688 639.367 301.688L641.692 310.545Z" fill="#07085B"/>
<path d="M599.211 240.819L596.529 240.55C596.998 240.291 597.563 240.163 598.161 240.221L665.368 246.925C668.883 247.276 671.487 250.124 671.18 253.284L670.828 256.92C670.521 260.083 667.421 262.361 663.906 262.01L597.455 255.361L599.211 240.819Z" fill="#E03268"/>
<path d="M665.187 256.359L665.539 252.723C665.846 249.56 663.245 246.715 659.727 246.364L661.17 246.507C664.685 246.858 667.289 249.707 666.982 252.866L666.631 256.502C666.324 259.665 663.224 261.943 659.709 261.592L658.283 261.449C661.792 261.791 664.881 259.515 665.187 256.359Z" fill="#FEB546"/>
<path d="M649.446 254.791L649.798 251.155C650.105 247.992 647.504 245.147 643.986 244.796L645.429 244.939C648.944 245.29 651.548 248.136 651.241 251.299L650.89 254.934C650.583 258.097 647.483 260.375 643.968 260.025L642.543 259.881C646.055 260.22 649.143 257.945 649.446 254.791Z" fill="#FEB546"/>
<path d="M637.41 244.153C640.772 244.488 643.261 247.212 642.967 250.234L642.567 254.343C642.275 257.365 639.31 259.546 635.949 259.21L594.111 255.038L594.201 254.12L594.376 254.138L605.098 254.294L607.982 246.925C607.982 246.925 604.238 242.319 603.98 242.185C603.721 242.051 595.657 240.913 595.657 240.913L595.485 240.895L595.575 239.98L637.41 244.153Z" fill="#FF5B7E"/>
<path d="M597.56 247.751C597.99 243.317 595.651 240.913 595.651 240.913L636.466 244.985C639.554 245.293 641.839 247.794 641.571 250.573L641.265 253.736C640.994 256.514 638.273 258.515 635.185 258.207L594.37 254.135C594.367 254.132 597.019 253.333 597.56 247.751Z" fill="#DAEEF7"/>
<path d="M641.568 250.57L641.262 253.733C641.222 254.147 641.123 254.547 640.982 254.922C639.899 251.756 637.542 248.575 632.611 247.138C621.098 243.78 595.648 240.913 595.648 240.913L636.463 244.985C639.554 245.293 641.839 247.794 641.568 250.57Z" fill="#DAEEF7"/>
<path d="M517.704 345.495L514.932 351.766C514.703 352.284 514.932 352.891 515.443 353.123L529.918 359.705C530.964 360.181 531.977 358.976 531.346 358.003L525.744 349.149C525.747 349.152 521.318 349.972 517.704 345.495Z" fill="#55769F"/>
<path d="M499.314 345.495L496.542 351.766C496.313 352.284 496.542 352.891 497.053 353.123L511.528 359.705C512.574 360.181 513.587 358.976 512.956 358.003L507.354 349.149C507.354 349.152 502.925 349.972 499.314 345.495Z" fill="#55769F"/>
<path d="M468.045 172.609L466.506 182.402L463.253 169.345C463.253 169.345 467.811 167.1 468.012 167.918C468.214 168.732 468.045 172.609 468.045 172.609Z" fill="#07085B"/>
<path d="M442.175 193.684L440.767 210.615L455.495 209.901L453.796 194.91L442.175 193.684Z" fill="#FFC0BB"/>
<path d="M454.605 202.038L453.796 194.907L442.175 193.684L441.687 199.546C443.997 201.883 448.152 204.304 454.605 202.038Z" fill="#F99893"/>
<path d="M463.635 182.277C462.747 184.135 463.22 186.224 464.684 186.941C466.148 187.66 468.055 186.736 468.942 184.879C469.829 183.021 469.357 180.932 467.892 180.215C466.425 179.499 464.522 180.42 463.635 182.277Z" fill="#F99893"/>
<path d="M465.772 183.637C465.85 183.153 465.953 182.674 466.067 182.198C466.524 180.27 466.647 178.205 466.329 176.052C465.306 169.126 459.81 163.602 452.969 162.644C443.753 161.351 435.638 168.275 435.063 177.44C434.116 176.824 433.022 176.622 432.02 177.001C430.105 177.724 429.275 180.282 430.168 182.713C431.061 185.144 433.337 186.526 435.256 185.803C435.52 185.702 435.764 185.562 435.986 185.397C436.281 193.248 442.208 199.674 449.77 200.031C453.468 200.208 456.911 198.9 459.581 196.609C463.216 193.901 465.054 188.151 465.772 183.637Z" fill="#FFC0BB"/>
<path d="M454.301 178.52C454.331 179.435 454.337 180.325 454.385 181.201C454.442 182.055 454.533 182.97 454.872 183.573C455.215 184.061 455.489 184.373 455.498 184.97C455.519 185.574 455.203 186.117 454.812 186.447C454.009 187.133 452.966 187.197 452.103 186.983C452.984 186.825 453.826 186.52 454.316 185.937C454.545 185.647 454.695 185.324 454.641 185.019C454.605 184.684 454.503 184.617 454.103 184.055C453.82 183.567 453.73 183.073 453.676 182.594C453.631 182.116 453.64 181.649 453.682 181.185C453.769 180.27 453.961 179.374 454.301 178.52Z" fill="#F99893"/>
<path d="M449.072 179.505C449.171 180.453 448.348 181.219 447.425 181.027C446.85 180.908 446.402 180.408 446.342 179.816C446.246 178.87 447.067 178.111 447.987 178.297C448.561 178.416 449.009 178.916 449.072 179.505Z" fill="#333333"/>
<path d="M460.82 180.853C460.916 181.798 460.095 182.558 459.175 182.372C458.601 182.256 458.153 181.756 458.09 181.164C457.991 180.215 458.814 179.453 459.738 179.642C460.309 179.761 460.76 180.264 460.82 180.853Z" fill="#333333"/>
<path d="M446.775 189.164C447.136 189.481 447.512 189.777 447.909 190.039C448.299 190.308 448.708 190.552 449.132 190.759C449.977 191.174 450.873 191.476 451.799 191.589C452.723 191.708 453.664 191.625 454.566 191.381C455.468 191.125 456.328 190.704 457.14 190.195C456.256 190.948 455.528 191.324 454.647 191.65C453.721 191.964 452.795 192.068 451.754 191.952C450.783 191.824 449.845 191.494 449.003 191.006C448.164 190.518 447.394 189.908 446.775 189.164Z" fill="#F99893"/>
<path d="M450.804 176.583C450.104 176.363 449.448 176.195 448.796 176.095C448.146 175.994 447.509 175.976 446.889 176.052C446.273 176.134 445.65 176.272 445.055 176.546C444.598 176.69 443.489 177.351 443.2 177.483C443.54 176.848 444.033 176.171 444.64 175.796C445.245 175.329 446.002 175.064 446.769 174.966C447.539 174.872 448.327 174.988 449.027 175.271C449.719 175.555 450.356 175.985 450.804 176.583Z" fill="#07085B"/>
<path d="M456.854 177.275C457.407 176.778 458.117 176.482 458.854 176.333C459.593 176.192 460.387 176.235 461.127 176.479C461.86 176.726 462.552 177.138 463.057 177.714C463.583 178.202 463.935 178.968 464.146 179.654C463.884 179.468 462.925 178.602 462.504 178.37C461.972 177.983 461.388 177.727 460.799 177.525C460.204 177.327 459.575 177.22 458.92 177.193C458.261 177.162 457.585 177.196 456.854 177.275Z" fill="#07085B"/>
<path d="M450.284 273.097C450.284 273.097 447.214 294.23 467.342 297.912C487.473 301.593 512.52 300.495 512.52 300.495L516.005 349.039L526.514 349.582C526.514 349.582 553.573 282.131 516.119 271.587L482.46 271.755L468.602 270.752C468.602 270.752 454.578 267.238 454.412 267.906C454.244 268.58 450.615 273.433 450.284 273.097Z" fill="#070852"/>
<path d="M431.786 273.21C431.786 273.21 428.716 294.343 448.844 298.025C468.975 301.706 494.022 300.608 494.022 300.608L497.507 349.152L508.016 349.695C508.016 349.695 535.074 282.244 497.621 271.7L463.962 271.868L450.104 270.864C450.104 270.864 436.08 267.351 435.914 268.019C435.746 268.69 432.114 273.545 431.786 273.21Z" fill="#10116B"/>
<path d="M457.14 203.862C457.14 203.862 470.998 205.646 474.519 208.547C478.04 211.447 494.981 254.071 494.981 254.071L480.9 270.81L450.979 271.032C450.979 271.032 428.538 283.305 414.457 271.7C400.376 260.095 407.638 219.704 415.777 211.002C423.917 202.3 438.437 202.523 438.437 202.523C438.437 202.523 451.64 211.896 457.14 203.862Z" fill="#FF5B7E"/>
<path d="M430.3 225.063C430.796 227.387 431.1 229.744 431.317 232.108C431.437 233.291 431.488 234.478 431.554 235.664C431.59 236.854 431.617 238.043 431.599 239.233C431.554 241.612 431.425 244 431.022 246.355C430.628 248.7 430.057 251.055 428.98 253.177C429.705 250.914 430.063 248.59 430.321 246.26C430.577 243.927 430.664 241.572 430.694 239.221C430.742 236.869 430.685 234.511 430.613 232.151C430.529 229.793 430.424 227.432 430.3 225.063Z" fill="white"/>
<path d="M471.771 223.501C472.405 226.957 473.076 230.403 473.755 233.84C474.45 237.275 475.172 240.703 475.993 244.107C476.804 247.511 477.703 250.89 478.792 254.205C479.339 255.862 479.947 257.496 480.662 259.082C481.366 260.671 482.202 262.212 483.32 263.557C482.045 262.349 481.11 260.821 480.265 259.281C479.444 257.719 478.738 256.096 478.127 254.443C477.505 252.793 476.97 251.113 476.465 249.426C475.978 247.733 475.53 246.028 475.112 244.32C474.715 242.606 474.333 240.886 473.99 239.163C473.659 237.433 473.335 235.707 473.061 233.969C472.499 230.498 472.057 227.005 471.771 223.501Z" fill="white"/>
<path d="M501.783 231.211C499.221 227.17 478.248 220.308 478.248 220.308C478.248 226.865 478.248 227.149 478.248 227.149L499.597 234.719L501.783 231.211Z" fill="#EDEDED"/>
<path d="M500.273 230.937L475.917 219.545V223.968L499.672 232.66L500.273 230.937Z" fill="white"/>
<path d="M498.92 230.937L473.211 221.07V228.695L498.661 232.66L498.92 230.937Z" fill="#EDEDED"/>
<path d="M501.782 230.159C501.782 230.159 506.738 218.401 508.767 215.961C508.767 223.696 505.685 233.423 505.685 233.423L501.782 230.159Z" fill="white"/>
<path d="M503.947 230.678L509.955 215.275V222.613L505.827 232.66L503.947 230.678Z" fill="#EDEDED"/>
<path d="M505.827 230.937L512.376 215.961V221.299L505.827 230.937Z" fill="white"/>
<path d="M505.827 277.08L514.084 262.654V216.51L505.827 230.937V277.08Z" fill="#26426E"/>
<path d="M467.784 270.111L497.02 277.08V230.937L467.784 223.968V270.111Z" fill="#55769F"/>
<path d="M497.02 230.937C499.596 229.686 504.988 230.129 505.827 230.937C505.385 233.575 497.675 234.094 497.02 230.937Z" fill="#E0E0E0"/>
<path d="M497.02 277.08C497.02 278.209 505.866 278.209 505.866 277.08V230.937C504.97 232.279 498.018 232.242 497.02 230.937V277.08Z" fill="#3A5782"/>
<path d="M478.735 261.165C478.648 260.458 473.359 259.671 471.416 259.567C469.943 259.491 460.183 259.159 456.863 259.006L457.107 259.872L457.055 263.697L456.511 266.231C459.425 266.418 466.545 266.701 468.027 267C470.009 267.397 473.443 268.912 473.443 268.912C473.443 268.912 474.871 268.583 473.055 267.787C471.597 267.15 470.574 266.161 470.141 265.667C469.892 265.384 470.162 264.88 470.343 264.929C475.286 266.244 475.794 266.46 475.794 266.46C475.794 266.46 481.603 266.427 475.827 265.103C472.363 264.31 471.122 263.846 470.815 263.453C470.683 263.285 470.917 262.715 471.128 262.7C474.128 262.51 479.514 263.59 478.037 262.883C476.835 262.306 473.046 261.675 471.573 261.434C471.482 261.419 471.335 260.863 471.738 260.827C474.6 260.592 478.816 261.821 478.735 261.165Z" fill="#FFC0BB"/>
<path d="M426.918 252.595C428.136 252.894 429.335 253.242 430.556 253.498C431.768 253.791 433.001 254.004 434.218 254.266C436.672 254.721 439.132 255.114 441.6 255.465C444.072 255.794 446.543 256.096 449.024 256.34C451.496 256.59 454.007 256.801 456.454 256.941L456.782 256.96L456.854 257.249C457.065 258.091 457.2 258.912 457.305 259.753C457.407 260.592 457.452 261.437 457.449 262.282C457.443 263.127 457.371 263.975 457.233 264.813C457.083 265.649 456.836 266.469 456.508 267.253L456.481 267.32L456.427 267.357L453.709 269.205C452.804 269.821 451.896 270.434 450.979 271.035C451.83 270.343 452.69 269.663 453.556 268.986L456.144 266.957L456.063 267.061C456.337 266.302 456.526 265.518 456.632 264.716C456.728 263.914 456.773 263.102 456.749 262.288C456.722 261.477 456.644 260.665 456.532 259.857C456.415 259.055 456.259 258.241 456.051 257.481L456.451 257.789C455.158 257.756 453.934 257.67 452.677 257.579C451.427 257.484 450.179 257.383 448.934 257.252C446.441 256.993 443.955 256.676 441.48 256.276C439.005 255.871 436.546 255.383 434.107 254.797C432.892 254.483 431.678 254.178 430.481 253.797C429.275 253.449 428.093 253.019 426.918 252.595Z" fill="white"/>
<path d="M468.34 163.343C468.34 163.343 472.962 163.492 468.112 159.53C463.262 155.568 450.245 150.92 441.901 155.388C441.901 155.388 440.232 151.789 437.821 152.649C435.409 153.51 439.39 155.983 439.39 155.983C439.39 155.983 436.311 155.882 435.37 157.417C434.675 158.548 436.561 158.6 437.592 158.548C435.839 158.85 429.116 163.157 432.489 176.906C433.689 176.638 440.524 166.588 440.524 166.588C440.524 166.588 456.15 175.396 454.605 168.394C454.605 168.394 470.797 178.642 468.5 170.178C468.5 170.175 474.76 170.641 468.34 163.343Z" fill="#07085B"/>
<path d="M432.474 176.992C432.474 176.992 433.767 176.531 435.159 177.65C436.552 178.77 436.398 182.707 436.398 182.707C436.398 182.707 443.041 187.053 442.34 168.665C441.594 149.102 436.798 170.233 436.798 170.233L432.474 176.992Z" fill="#07085B"/>
<path d="M360.367 543.727L363.139 549.997C363.368 550.516 363.139 551.123 362.628 551.355L348.153 557.937C347.107 558.412 346.093 557.208 346.725 556.235L352.327 547.38C352.324 547.384 356.753 548.207 360.367 543.727Z" fill="#07085B"/>
<path d="M379.124 542.982L381.896 549.253C382.125 549.772 381.896 550.379 381.385 550.61L366.91 557.192C365.86 557.668 364.85 556.463 365.482 555.49L371.083 546.636C371.083 546.636 375.512 547.46 379.124 542.982Z" fill="#07085B"/>
<path d="M396.043 339.916C396.043 339.916 380.266 337.217 374.974 355.096L381.508 365.015C381.508 365.015 395.21 359.674 395.265 359.153C395.319 358.631 396.043 339.916 396.043 339.916Z" fill="#FF5500"/>
<path d="M421.436 347.971C421.436 347.971 426.037 354.993 428.385 357.774C434.29 364.777 435.051 362.578 438.72 368.602C442.68 375.101 438.674 379.173 436.395 381.046C434.116 382.918 437.929 389.848 433.683 393.734C428.126 398.818 422.988 394.023 419.166 396.872C415.344 399.721 414.508 403.942 405.449 403.146C396.389 402.347 396.476 372.301 396.476 372.301C396.476 372.301 403.891 356.371 404.186 356.24C404.48 356.103 421.436 347.971 421.436 347.971Z" fill="#FF5500"/>
<path d="M374.974 355.096C374.974 355.096 374.433 360.611 372.635 363.786C368.112 371.777 365.677 369.16 363.169 375.766C360.463 382.897 365.148 386.145 367.728 387.557C370.307 388.97 367.83 396.497 372.71 399.516C379.1 403.469 383.273 397.79 387.549 399.87C391.825 401.95 393.418 405.943 402.177 403.454C410.933 400.965 405.355 371.456 405.355 371.456C405.355 371.456 395.156 357.198 394.843 357.125C394.531 357.048 374.974 355.096 374.974 355.096Z" fill="#FF5500"/>
<path d="M397.865 390.681C397.865 390.681 412.987 387.859 419.939 388.097C426.891 388.335 415.726 406.675 415.726 406.675L404.369 406.931C404.369 406.931 397.408 399.044 397.865 398.126C398.322 397.208 397.844 391.19 397.844 391.19L397.865 390.681Z" fill="#FFC0BB"/>
<path d="M411.348 376.044L415.338 388.323C415.338 388.323 411.865 395.606 401.23 392.465C401.23 392.465 402.445 389.921 400.815 384.684C399.152 379.332 411.348 376.044 411.348 376.044Z" fill="#FFC0BB"/>
<path opacity="0.6" d="M411.348 376.044L413.218 381.781C412.103 385.971 408.486 388.829 401.66 389.714C401.663 388.466 401.474 386.801 400.815 384.684C399.152 379.332 411.348 376.044 411.348 376.044Z" fill="#FC8D84"/>
<path d="M387.02 367.055C387.883 369.05 387.308 371.234 385.736 371.932C384.163 372.634 382.188 371.585 381.325 369.59C380.462 367.595 381.036 365.411 382.609 364.71C384.181 364.011 386.154 365.061 387.02 367.055Z" fill="#F99893"/>
<path d="M386.578 376.108C385.558 373.54 385.005 370.801 384.713 368.403C384.65 367.891 384.56 367.382 384.458 366.872C384.049 364.823 383.998 362.639 384.416 360.382C385.76 353.117 391.765 347.508 399.017 346.767C408.786 345.766 417.082 353.382 417.338 363.072C418.36 362.459 419.524 362.291 420.564 362.73C422.558 363.569 423.337 366.299 422.302 368.827C421.268 371.356 418.811 372.725 416.821 371.883C416.544 371.768 416.295 371.612 416.066 371.426C415.456 379.695 408.961 386.237 400.969 386.319C394.964 386.383 389.055 382.693 386.578 376.108Z" fill="#FFC0BB"/>
<path d="M397.005 363.456C397.321 364.368 397.483 365.323 397.538 366.296C397.565 366.784 397.553 367.275 397.486 367.778C397.411 368.278 397.297 368.794 396.984 369.291C396.621 369.764 396.431 369.919 396.377 370.3C396.311 370.627 396.461 370.981 396.696 371.295C397.201 371.932 398.082 372.283 399.005 372.472C398.088 372.655 396.996 372.539 396.185 371.786C395.788 371.423 395.481 370.846 395.526 370.218C395.571 369.565 395.86 369.276 396.236 368.779C396.431 368.477 396.554 368.056 396.648 367.629C396.75 367.199 396.78 366.738 396.837 366.284C396.915 365.36 396.948 364.42 397.005 363.456Z" fill="#F99893"/>
<path d="M402.481 364.707C402.343 365.704 403.185 366.54 404.165 366.372C404.772 366.268 405.265 365.759 405.352 365.14C405.491 364.146 404.649 363.31 403.672 363.475C403.061 363.575 402.568 364.085 402.481 364.707Z" fill="#333333"/>
<path d="M390.042 365.661C389.903 366.656 390.742 367.488 391.719 367.33C392.33 367.229 392.823 366.72 392.91 366.101C393.051 365.103 392.209 364.268 391.229 364.432C390.619 364.53 390.126 365.042 390.042 365.661Z" fill="#333333"/>
<path opacity="0.3" d="M402.721 376.12C402.721 376.12 400.647 375.367 398.698 376.663C398.698 376.663 396.588 375.324 394.928 376.602C394.928 376.602 395.7 379.789 399.164 379.572C402.625 379.359 402.721 376.12 402.721 376.12Z" fill="#F99893"/>
<path d="M404.535 374.976C404.144 375.299 403.735 375.595 403.305 375.855C402.881 376.123 402.442 376.364 401.988 376.565C401.08 376.968 400.124 377.255 399.143 377.337C398.166 377.425 397.177 377.303 396.233 377.01C395.292 376.705 394.402 376.227 393.563 375.659C393.935 376.004 394.338 376.318 394.768 376.596C395.198 376.876 395.661 377.096 396.136 377.291C396.618 377.474 397.12 377.605 397.631 377.682C398.142 377.749 398.662 377.761 399.176 377.724C400.205 377.627 401.209 377.316 402.114 376.834C403.019 376.352 403.855 375.739 404.535 374.976Z" fill="#F99893"/>
<path d="M400.767 361.55C401.513 361.346 402.213 361.196 402.905 361.114C403.593 361.032 404.267 361.038 404.919 361.144C405.566 361.257 406.215 361.422 406.835 361.736C407.31 361.907 408.459 362.648 408.756 362.794C408.425 362.114 407.929 361.379 407.301 360.958C406.681 360.443 405.891 360.132 405.088 359.998C404.279 359.869 403.443 359.958 402.694 360.229C401.952 360.51 401.263 360.94 400.767 361.55Z" fill="#FF5500"/>
<path d="M394.359 362.041C393.794 361.495 393.06 361.154 392.288 360.971C391.512 360.794 390.673 360.806 389.885 361.035C389.103 361.266 388.355 361.672 387.804 362.261C387.23 362.755 386.83 363.545 386.581 364.265C386.863 364.082 387.91 363.203 388.361 362.977C388.938 362.59 389.563 362.343 390.192 362.151C390.826 361.965 391.494 361.876 392.188 361.873C392.88 361.87 393.596 361.931 394.359 362.041Z" fill="#FF5500"/>
<path d="M424.166 465.705C424.166 465.705 428.626 486.99 408.392 492.044C388.159 497.098 362.625 497.611 362.625 497.611L362.153 547.194L351.503 548.433C351.503 548.433 319.723 481.616 357.137 468.459L391.371 466.437L405.398 464.512C405.398 464.512 419.434 460.025 419.644 460.696C419.852 461.367 423.851 466.067 424.166 465.705Z" fill="#FFC0BB"/>
<path d="M442.98 464.612C442.98 464.612 447.439 485.898 427.206 490.952C406.973 496.006 381.439 496.522 381.439 496.522L380.967 546.106L370.317 547.344C370.317 547.344 338.537 480.527 375.951 467.37L410.184 465.348L424.211 463.423C424.211 463.423 438.247 458.936 438.458 459.607C438.668 460.275 442.668 464.975 442.98 464.612Z" fill="#FFC0BB"/>
<path d="M370.232 462.102C353.171 462.368 337.608 472.305 332.072 491.602C326.537 510.902 313.908 530.81 315.111 530.615C341.872 545.81 350.285 530.548 368.78 535.058C387.275 539.569 393.83 537.529 393.83 537.529C388.478 510.289 381.436 496.519 381.436 496.519C382.991 496.802 428.382 497.479 439.595 484.874C442.74 481.339 445.148 476.892 444.667 466.025C443.774 445.803 375.182 462.026 370.232 462.102Z" fill="#FEB546"/>
<path d="M375.32 497.943C375.903 497.836 376.487 497.736 377.061 497.598C377.638 497.464 378.207 497.306 378.769 497.135C379.051 497.046 379.334 496.949 379.614 496.845C379.322 496.784 379.039 496.699 378.757 496.595C378.201 496.397 377.68 496.11 377.193 495.784C376.721 495.433 376.276 495.052 375.885 494.615C375.494 494.182 375.158 493.707 374.86 493.209L375.44 493.847C375.648 494.045 375.84 494.252 376.057 494.435C376.469 494.826 376.932 495.152 377.404 495.448C377.879 495.741 378.384 495.976 378.904 496.162C379.421 496.339 379.981 496.47 380.495 496.488L381.442 496.522L380.603 496.918C380.032 497.187 379.466 497.363 378.883 497.528C378.303 497.693 377.713 497.809 377.124 497.912C376.532 498.01 375.939 498.095 375.344 498.138C374.749 498.184 374.153 498.211 373.558 498.208C374.147 498.126 374.737 498.053 375.32 497.943Z" fill="#DAEEF7"/>
<path d="M380.681 420.561C380.681 420.561 379.304 455.341 375.449 460.788L396.657 455.899V418.048L380.681 420.561Z" fill="#FFC0BB"/>
<path d="M389.248 425.31C389.248 425.31 392.667 434.064 393.202 438.715C394.534 450.262 393.088 458.406 390.73 464.979C387.426 474.199 413.002 470.691 413.618 470.703C440.644 471.356 440.394 470.237 440.394 470.237L444.709 466.723C444.108 455.46 442.571 445.718 442.812 435.674L443.059 425.31L441.82 414.834L403.563 411.777L389.248 425.31Z" fill="#FEB546"/>
<path d="M376.153 433.045C378.489 429.358 397.625 423.096 397.625 423.096C397.625 429.08 397.625 429.336 397.625 429.336L378.146 436.245L376.153 433.045Z" fill="#EDEDED"/>
<path d="M376.153 433.045C378.489 429.358 397.625 423.096 397.625 423.096C397.625 429.08 397.625 429.336 397.625 429.336L378.146 436.245L376.153 433.045Z" fill="#EDEDED"/>
<path d="M377.527 432.792L399.751 422.401V426.436L378.077 434.366L377.527 432.792Z" fill="white"/>
<path d="M378.763 432.792L402.219 423.791V430.748L379 434.366L378.763 432.792Z" fill="#EDEDED"/>
<path d="M376.153 432.084C376.153 432.084 371.631 421.357 369.778 419.131C369.778 426.189 372.59 435.061 372.59 435.061L376.153 432.084Z" fill="white"/>
<path d="M374.177 432.557L368.696 418.503V425.2L372.46 434.366L374.177 432.557Z" fill="#EDEDED"/>
<path d="M372.46 432.792L366.486 419.131V423.999L372.46 432.792Z" fill="white"/>
<path d="M372.46 474.894L366.979 462.093V419.994L372.46 432.792V474.894Z" fill="#F5577A"/>
<path d="M407.172 468.535L380.495 474.894V432.792L407.172 426.433V468.535Z" fill="#FF5B7E"/>
<path d="M380.495 432.792C378.143 431.651 373.224 432.054 372.46 432.792C372.863 435.201 379.896 435.674 380.495 432.792Z" fill="#E0E0E0"/>
<path d="M380.495 474.894C380.495 475.925 372.424 475.925 372.424 474.894V432.795C373.242 434.021 379.584 433.985 380.495 432.795V474.894Z" fill="#DE4B6C"/>
<path d="M451.069 416.362L432.91 424.892C432.91 424.892 431.497 448.454 430.622 449.497C429.035 451.385 412.933 456.789 404.453 458.372C403.088 458.625 401.684 458.516 400.376 458.049C396.17 456.542 388.725 453.831 387.552 453.425C385.709 452.791 380.507 451.546 380.167 452.169C379.851 452.748 384.217 453.184 386.785 454.477C387.146 454.66 386.809 455.124 386.719 455.103C385.264 454.773 381.511 453.941 380.185 454.026C378.555 454.133 383.953 455.145 386.674 456.445C386.863 456.536 386.875 457.155 386.692 457.262C386.262 457.512 384.942 457.479 381.433 456.917C375.582 455.984 380.97 458.192 380.97 458.192C380.97 458.192 381.52 458.18 386.596 458.811C386.782 458.836 386.848 459.403 386.515 459.574C385.934 459.867 384.623 460.404 383.036 460.452C381.06 460.51 382.269 461.352 382.269 461.352C382.269 461.352 386.012 461.23 388 461.602C389.485 461.88 396.209 464.283 398.984 465.201L399.327 464.768C403.176 465.677 438.647 468.306 442.953 457.631C450.87 438.004 451.069 416.362 451.069 416.362Z" fill="#FFC0BB"/>
<path d="M397.865 390.681C397.865 390.681 408.146 402.85 419.939 388.097C419.939 388.097 432.826 387.033 442.325 393.877C451.827 400.721 457.515 416.093 457.515 416.093C457.515 416.093 443.879 425.313 432.886 425.313L407.108 415.95L389.248 425.313C389.248 425.313 380.955 424.755 373.931 421.123C373.934 421.12 375.143 396.686 397.865 390.681Z" fill="#FEB546"/>
<path d="M429.753 411.442C430.195 412.952 430.595 414.474 430.992 415.996C431.732 418.985 432.414 421.833 432.913 424.892C433.845 424.935 434.895 424.798 435.815 424.664C440.776 423.767 444.036 422.358 448.456 420.525C455.077 417.466 454.184 417.762 457.516 416.093C453.64 418.579 451.553 419.701 448.729 421.132C444.86 422.953 441.161 424.636 435.953 425.567C433.677 425.881 433.022 425.814 432.159 425.713C431.822 423.468 431.437 421.171 430.382 416.142L429.398 411.537L428.385 406.931C428.875 408.422 429.311 409.932 429.753 411.442Z" fill="#07085B"/>
<path d="M388.896 414.272C388.595 415.843 388.391 417.917 388.46 419.854C388.493 420.757 389.152 423.285 389.909 425.847C389.768 425.902 389.627 425.954 389.485 426.009C388.607 423.431 387.853 420.848 387.756 419.909C387.525 417.969 387.684 416.011 388.006 414.108C388.367 412.189 388.842 410.402 389.56 408.551C390.243 406.757 391.049 405.013 392.059 403.39C391.386 405.177 390.772 406.974 390.228 408.782C389.687 410.597 389.212 412.424 388.896 414.272Z" fill="#07085B"/>
<path d="M417.335 363.075C417.335 363.075 399.682 358.756 391.247 346.587C391.247 346.587 391.1 335.506 407.307 338.019C423.054 340.462 426.74 356.005 417.335 363.075Z" fill="#FF5500"/>
</svg>
